:SAMPLES-PER-SECOND 30
:FULLY-SPECIFIED
:DEGREES
886
root  -43.2056 36.8648 -1.58051 -103.656 -86.7356 142.686
RightUpLeg  -80.6192 -21.6492 29.116
RightLeg  38.0791 -1.15756 -1.2517
RightFoot  -3.30875 0.954369 -13.8323
RightToes  2.91037e-010 0 -3.6325e-017
Spine  74.6083 -4.53158 2.45278
Spine1  9.96949 -1.50643 -6.42083
HEad  -45.0011 2.78616 1.22208
LeftShoulder1  2.34774 -14.4802 -5.23112
LeftArm  -93.9579 -59.101 27.4622
LeftForeArm  -4.54118 -18.829 -1.83243
LeftHand  -0.244104 0.0205437 5.32207
RightShoulder  -0.103425 9.04981 -10.5557
RightArm  -97.5542 55.5452 -9.05575
RightForeArm  6.76602 22.2515 4.16347
RightHand  0.808512 5.66456 8.13345
LeftUpLeg  -75.4287 17.9015 -20.6899
LeftLeg  39.5194 3.06065 3.08661
LeftFoot  -5.01994 -0.201421 4.19539
LeftToes  -1.10052e-010 1.3781e-010 -2.1811e-011
887
root  -42.9862 36.8464 -1.31582 -112.549 -86.3449 151.123
RightUpLeg  -80.4096 -21.5722 28.76
RightLeg  37.7918 -0.741056 -0.894331
RightFoot  -2.36667 1.06763 -13.7275
RightToes  2.91037e-010 0 -3.6325e-017
Spine  74.7138 -4.62553 2.33493
Spine1  10.3346 -1.55617 -6.85756
HEad  -44.4413 2.70646 1.40252
LeftShoulder1  2.32536 -14.4641 -5.10513
LeftArm  -95.6965 -59.026 26.4617
LeftForeArm  -1.72326 -19.8326 -2.56218
LeftHand  -0.244104 0.0205437 5.32207
RightShoulder  -0.179175 9.19465 -11.2266
RightArm  -97.2366 54.7167 -9.21651
RightForeArm  7.42213 21.4154 3.64494
RightHand  0.939032 6.11416 9.10078
LeftUpLeg  -75.6354 18.3171 -21.3612
LeftLeg  39.7846 3.06804 3.11967
LeftFoot  -4.79276 -0.248589 4.84261
LeftToes  -1.10052e-010 1.3781e-010 -2.1811e-011
888
root  -42.7248 36.8487 -1.01839 -119.525 -85.889 157.651
RightUpLeg  -80.1021 -21.5678 28.5076
RightLeg  37.0627 -0.314207 -0.528357
RightFoot  -1.33446 1.20117 -13.7298
RightToes  2.91037e-010 0 -3.6325e-017
Spine  74.6664 -4.70968 2.30616
Spine1  10.5515 -1.5724 -7.23786
HEad  -43.6411 2.55872 1.60625
LeftShoulder1  2.28549 -14.8089 -4.58566
LeftArm  -95.2328 -59.2077 25.4747
LeftForeArm  -1.22671 -19.6002 -2.28709
LeftHand  -0.244104 0.0205437 5.32207
RightShoulder  -0.27687 9.73999 -12.0053
RightArm  -96.4545 53.6258 -8.35921
RightForeArm  7.27176 20.8045 3.21615
RightHand  1.06506 6.38604 10.1061
LeftUpLeg  -75.8614 18.7504 -22.2508
LeftLeg  39.775 3.12053 3.16498
LeftFoot  -4.18475 -0.339894 5.83066
LeftToes  -1.10052e-010 1.3781e-010 -2.1811e-011
889
root  -42.4127 36.868 -0.683517 -125.375 -85.3409 163.057
RightUpLeg  -79.7387 -21.521 28.3379
RightLeg  35.8888 -0.0589398 -0.313309
RightFoot  0.0177162 1.40532 -14.0436
RightToes  2.91037e-010 0 -3.6325e-017
Spine  74.3293 -4.7656 2.25629
Spine1  10.8959 -1.53277 -7.62057
HEad  -43.0818 2.38449 1.73719
LeftShoulder1  2.20116 -15.2205 -3.76604
LeftArm  -93.5573 -59.6324 24.2923
LeftForeArm  -2.67951 -18.6173 -1.37919
LeftHand  -0.244104 0.0205437 5.32207
RightShoulder  -0.355863 10.503 -12.5247
RightArm  -95.728 52.5804 -7.28151
RightForeArm  6.60633 20.4197 2.92898
RightHand  1.20455 6.58913 11.259
LeftUpLeg  -76.0761 19.235 -23.3321
LeftLeg  39.5385 3.11245 3.13371
LeftFoot  -3.5121 -0.442841 6.77606
LeftToes  -1.10052e-010 1.3781e-010 -2.1811e-011
890
root  -42.043 36.9103 -0.313083 -130.498 -84.6438 167.452
RightUpLeg  -78.9653 -21.3925 27.6385
RightLeg  34.5935 0.249183 -0.0767674
RightFoot  1.63199 1.55042 -13.4765
RightToes  2.91037e-010 0 -3.6325e-017
Spine  73.9821 -4.79767 2.17568
Spine1  11.4126 -1.41727 -8.01918
HEad  -42.7304 1.97671 1.76942
LeftShoulder1  2.1226 -15.4756 -3.11903
LeftArm  -92.5541 -60.2618 22.9717
LeftForeArm  -3.0904 -17.8523 -0.588653
LeftHand  -0.244104 0.0205437 5.32207
RightShoulder  -0.376171 11.0253 -12.5786
RightArm  -94.7274 52.1313 -6.97485
RightForeArm  5.71219 19.6411 2.29911
RightHand  1.33681 6.81517 12.28
LeftUpLeg  -75.9229 19.9729 -24.5958
LeftLeg  38.9458 2.81485 2.81829
LeftFoot  -3.07628 -0.538844 7.70523
LeftToes  -1.10052e-010 1.3781e-010 -2.1811e-011
891
root  -41.621 36.981 0.0661858 -134.976 -84.0227 170.757
RightUpLeg  -77.5218 -21.3843 26.5243
RightLeg  33.0842 0.719827 0.251986
RightFoot  3.2442 1.6345 -12.5247
RightToes  2.91037e-010 0 -3.6325e-017
Spine  73.8975 -4.93684 2.25987
Spine1  11.8785 -1.2733 -8.37623
HEad  -42.164 1.38204 1.77616
LeftShoulder1  2.10764 -15.5597 -2.97499
LeftArm  -92.2341 -60.9687 21.9278
LeftForeArm  -1.62594 -17.5127 -0.157121
LeftHand  -0.244104 0.0205437 5.32207
RightShoulder  -0.36209 11.333 -12.4077
RightArm  -92.4835 52.2909 -7.32082
RightForeArm  3.71515 18.0343 0.972086
RightHand  1.46025 7.08465 13.1323
LeftUpLeg  -75.221 21.0464 -25.9671
LeftLeg  37.81 2.15836 2.17308
LeftFoot  -2.67264 -0.661182 8.91414
LeftToes  -1.10052e-010 1.3781e-010 -2.1811e-011
